Coordinates
version=1
nRows=14
nColumns=24
inDegrees=yes

Units are S.I. units (second, meters, Newtons, ...)
Angles are in degrees.

endheader
time	pelvis_tilt	pelvis_list	pelvis_rotation	pelvis_tx	pelvis_ty	pelvis_tz	hip_flexion_r	hip_adduction_r	hip_rotation_r	knee_angle_r	ankle_angle_r	subtalar_angle_r	mtp_angle_r	hip_flexion_l	hip_adduction_l	hip_rotation_l	knee_angle_l	ankle_angle_l	subtalar_angle_l	mtp_angle_l	lumbar_extension	lumbar_bending	lumbar_rotation
      4.35000000	     -8.73756664	      3.69760090	     -9.79160382	     -2.27070670	     -0.02782343	      0.47602677	     -6.60011158	     -1.96002347	      5.47872015	    -13.62782845	      5.30594586	      4.33570478	      7.53560276	     29.05059553	     -0.31146892	      1.87563919	     -4.35773351	     -6.09115561	      3.09417176	     13.72369278	      6.45422846	     -2.65133299	     12.17330572
      4.35500000	     -8.77997614	      3.82735037	     -9.80716870	     -2.26340984	     -0.02839112	      0.47561804	     -6.69155839	     -2.23458640	      5.38126228	    -14.21347392	      4.97542118	      4.74322699	      7.97785742	     29.12472474	     -0.06532775	      2.07605287	     -5.08699098	     -6.06298964	      3.26393099	     13.72219083	      6.66055429	     -2.77113234	     12.21496206
      4.36000000	     -8.84493618	      3.96768315	     -9.79344695	     -2.25600695	     -0.02897549	      0.47513730	     -6.74008740	     -2.51774321	      5.26285340	    -14.84019642	      4.59553845	      5.14808438	      8.45501102	     29.22281634	      0.21226014	      2.20288393	     -5.86065342	     -6.14862725	      3.41688768	     13.75828402	      6.90470562	     -2.89954832	     12.24814654
      4.36500000	     -8.92040124	      4.10337666	     -9.77531475	     -2.24855714	     -0.02955737	      0.47461152	     -6.75434054	     -2.79566257	      5.14997894	    -15.50563818	      4.15644134	      5.54699222	      8.95625097	     29.32709427	      0.48974120	      2.29343350	     -6.65887846	     -6.35603564	      3.56443558	     13.82120999	      7.16144743	     -3.01626898	     12.28792094
      4.37000000	     -9.01269564	      4.24798521	     -9.74644737	     -2.24106688	     -0.03014290	      0.47405321	     -6.70945453	     -3.07963592	      5.01856523	    -16.23767513	      3.66793768	      5.93313346	      9.52993848	     29.44108576	      0.77774431	      2.32845582	     -7.45197234	     -6.70230325	      3.70920250	     13.89957658	      7.43838173	     -3.14411935	     12.32247835
      4.37500000	     -9.10994232	      4.41854288	     -9.69325678	     -2.23350188	     -0.03066675	      0.47344842	     -6.64341729	     -3.38706065	      4.88671793	    -16.99003797	      3.07588958	      6.28177534	     10.04519103	     29.54865024	      1.09937986	      2.27884952	     -8.20806501	     -7.23827741	      3.86613432	     13.96005450	      7.73345803	     -3.29796770	     12.37144069
      4.38000000	     -9.22257037	      4.60180191	     -9.63971156	     -2.22595470	     -0.03115622	      0.47282350	     -6.50498235	     -3.70816055	      4.71674855	    -17.81635312	      2.42740278	      6.65082285	     10.64909595	     29.66781358	      1.42341149	      2.17326770	     -8.93088295	     -7.92616314	      4.01137677	     13.99776765	      8.04083297	     -3.46579754	     12.42501031
      4.38500000	     -9.35614184	      4.79623183	     -9.60671352	     -2.21845247	     -0.03159935	      0.47216618	     -6.26314431	     -4.04615827	      4.52558241	    -18.74600015	      1.68904260	      7.03182600	     11.43856191	     29.78343761	      1.73860157	      2.07536194	     -9.57550887	     -8.74585573	      4.09287158	     13.99694416	      8.36361498	     -3.62841264	     12.44626875
      4.39000000	     -9.48446379	      4.98139366	     -9.53916677	     -2.21100146	     -0.03194681	      0.47142483	     -5.99995635	     -4.37379137	      4.32586757	    -19.69352567	      0.81190134	      7.37123370	     12.32437803	     29.91003199	      2.06500862	      1.98737384	    -10.22289831	     -9.67438363	      4.05546507	     13.90423754	      8.66266510	     -3.78766822	     12.50717315
      4.39500000	     -9.59311471	      5.25648259	     -9.46916571	     -2.20342363	     -0.03218582	      0.47079313	     -5.70923187	     -4.78527156	      4.15104256	    -20.71102173	     -0.17887735	      7.61286912	     13.02517786	     29.98466692	      2.46871462	      1.88694461	    -10.79872007	    -10.57768237	      4.02846827	     13.68645123	      8.97867632	     -4.05885913	     12.52122980
      4.40000000	     -9.71903311	      5.46282346	     -9.39297544	     -2.19604732	     -0.03235881	      0.46999885	     -5.33242893	     -5.14051125	      3.92507305	    -21.78167530	     -1.30560625	      7.91641252	     14.12346366	     30.10910896	      2.82990566	      1.93071499	    -11.44142134	    -11.48988689	      3.70151543	     13.22692208	      9.25959072	     -4.23858758	     12.60340863
      4.40500000	     -9.81237322	      5.70911665	     -9.30408427	     -2.18860897	     -0.03241875	      0.46928209	     -4.95194426	     -5.52636554	      3.73362061	    -22.89218541	     -2.60798011	      8.06607196	     15.18763752	     30.18738955	      3.24163912	      2.02958385	    -12.08554552	    -12.24223062	      3.32046668	     12.58286155	      9.52025499	     -4.47988936	     12.64842712
      4.41000000	     -9.89730899	      5.95771652	     -9.24525190	     -2.18119714	     -0.03241010	      0.46859731	     -4.51081888	     -5.91482993	      3.58378686	    -24.08042336	     -4.03570735	      8.20142065	     16.23668965	     30.25614046	      3.65545290	      2.17495754	    -12.76593145	    -12.79552026	      2.79905369	     11.74960001	      9.76850618	     -4.71807744	     12.71195895
      4.41500000	     -9.96018930	      6.18066180	     -9.17860735	     -2.17381570	     -0.03233818	      0.46791567	     -4.04771112	     -6.27017614	      3.45374787	    -25.30779136	     -5.64160810	      8.22331137	     17.39195465	     30.30464071	      4.06820184	      2.40543633	    -13.50664307	    -13.08252798	      2.18062936	     10.73918959	      9.97930364	     -4.93542085	     12.75687927
